<svg xmlns="http://www.w3.org/2000/svg" version="1.1" xmlns:xlink="http://www.w3.org/1999/xlink" xmlns:svgjs="http://svgjs.dev/svgjs" width="1000" height="623" viewBox="0 0 1000 623"><g transform="matrix(1,0,0,1,-0.6060606060606233,0.2522267206477409)"><svg viewBox="0 0 396 247" data-background-color="#ffffff" preserveAspectRatio="xMidYMid meet" height="623" width="1000" xmlns="http://www.w3.org/2000/svg" xmlns:xlink="http://www.w3.org/1999/xlink"><g id="tight-bounds" transform="matrix(1,0,0,1,0.2400000000000091,-0.09999999999999432)"><svg viewBox="0 0 395.52 247.2" height="247.2" width="395.52"><g><svg></svg></g><g><svg viewBox="0 0 395.52 247.2" height="247.2" width="395.52"><g transform="matrix(1,0,0,1,102.24975830058246,47.215199999999996)"><svg viewBox="0 0 191.02048339883507 152.7696" height="152.7696" width="191.02048339883507"><g><svg viewBox="0 0 191.02048339883507 152.7696" height="152.7696" width="191.02048339883507"><g><svg viewBox="0 0 244.43136 195.48521933477488" height="152.7696" width="191.02048339883507"><g><svg viewBox="0 0 244.43136 195.48521933477488" height="195.48521933477488" width="244.43136"><g id="textblocktransform"><svg viewBox="0 0 244.43136 195.48521933477488" height="195.48521933477488" width="244.43136" id="textblock"><g><svg viewBox="0 0 244.43136 105.4353863243874" height="105.4353863243874" width="244.43136"><g transform="matrix(1,0,0,1,0,0)"><svg width="244.43136" viewBox="-12.149999618530273 -34.75 128.52999877929688 55.45000076293945" height="105.4353863243874" data-palette-color="#ff908b"><path d="M23.2-1.25L23.2-1.25Q23.2-0.75 24.03-0.75 24.85-0.75 26.95-1.73 29.05-2.7 30.65-3.7L30.65-3.7 32.25-4.7Q32.3-4.6 32.3-4.3 32.3-4 31.85-3.8L31.85-3.8Q25.1 0.8 22.45 0.8L22.45 0.8Q21.15 0.8 21.15-0.5 21.15-1.8 23.3-5.45L23.3-5.45 32.1-20.75Q32.1-20.9 31.93-20.9 31.75-20.9 31.25-20.43 30.75-19.95 22.13-11.15 13.5-2.35 12-0.8L12-0.8Q11.15 0.2 10.5 0.2L10.5 0.2Q9.95 0.2 9.95-0.45L9.95-0.45Q9.95-1.95 16.53-11.93 23.1-21.9 23.35-23.1L23.35-23.1Q23.35-23.25 23.23-23.25 23.1-23.25 22.38-22.53 21.65-21.8 12-11.75 2.35-1.7 0.8 0.05L0.8 0.05Q0.4 0.35-0.08 0.35-0.55 0.35-0.55-0.1L-0.55-0.1Q-0.55-0.45-0.1-1.2 0.35-1.95 1.18-3.35 2-4.75 4.13-8.65 6.25-12.55 7.88-16 9.5-19.45 10.83-23.4 12.15-27.35 12.15-29.85L12.15-29.85Q12.15-34 8.55-34L8.55-34Q4.4-34-0.23-31.63-4.85-29.25-7.75-26.15-10.65-23.05-10.65-20.8L-10.65-20.8Q-10.65-18.2-6.43-18.2-2.2-18.2 1.63-20.83 5.45-23.45 7.05-26.45L7.05-26.45Q7.3-26.75 7.45-26.75 7.6-26.75 7.6-26.08 7.6-25.4 6.5-23.75 5.4-22.1 3.63-20.43 1.85-18.75-0.88-17.55-3.6-16.35-6.45-16.35L-6.45-16.35Q-12.15-16.35-12.15-20.1L-12.15-20.1Q-12.15-22.15-10.35-24.68-8.55-27.2-5.65-29.45-2.75-31.7 1.38-33.23 5.5-34.75 9.6-34.75L9.6-34.75Q14.25-34.75 14.25-29.9L14.25-29.9Q14.25-27.4 13.03-23.7 11.8-20 10.1-16.5L10.1-16.5Q6.65-9.65 3.6-4.9L3.6-4.9 2.4-2.95Q2.6-3.05 7.3-7.95L7.3-7.95Q22.85-24.05 24.2-25.4L24.2-25.4Q25.15-25.4 25.35-25.15 25.55-24.9 25.55-24.8L25.55-24.8 25.55-24.75Q25.55-23.4 16.5-9.2L16.5-9.2Q13-3.75 12.7-3.25L12.7-3.25 12.25-2.25Q12.65-2.25 17.4-7.28 22.15-12.3 27.03-17.32 31.9-22.35 32.6-22.35L32.6-22.35Q32.9-22.35 33.25-22.08 33.6-21.8 33.6-21.5 33.6-21.2 33.45-20.9L33.45-20.9 24.5-4.7Q23.2-2.3 23.2-1.25ZM33.65-4.85L33.65-4.85Q30.65-4.85 30.65-6.15L30.65-6.15Q30.65-7.7 34.2-9.83 37.75-11.95 40.6-11.95L40.6-11.95Q42.05-11.95 42.05-11.05L42.05-11.05Q42.05-10.55 41.3-9.95 40.55-9.35 39.85-9 39.15-8.65 39.05-8.65L39.05-8.65Q38.75-8.65 38.65-8.9L38.65-8.9Q38.55-9.25 39.17-9.63 39.8-10 39.8-10.45 39.8-10.9 38.67-10.9 37.55-10.9 35.15-9.33 32.75-7.75 32.75-6.75L32.75-6.75Q32.75-6 34.5-6L34.5-6Q34.8-6 35.6-6.05 36.4-6.1 36.4-5.85 36.4-5.6 33.92-4.05 31.45-2.5 31.45-1.4L31.45-1.4Q31.45-0.15 33.07-0.15 34.7-0.15 36.75-1L36.75-1Q40.05-2.45 42.75-4.1L42.75-4.1 43.7-4.7Q43.75-4.6 43.75-4.3 43.75-4 43.3-3.8L43.3-3.8Q40.65-2 37.5-0.38 34.35 1.25 31.82 1.25 29.3 1.25 29.3-0.43 29.3-2.1 33.65-4.85ZM42.6-3.35L42.6-3.35Q42.4-3.25 42.22-3.25 42.05-3.25 42.05-3.45 42.05-3.65 42.2-3.8L42.2-3.8Q44.25-4.95 46.7-7.55L46.7-7.55Q44.45-8.25 44.45-9.53 44.45-10.8 46.15-12.38 47.85-13.95 49.35-13.95L49.35-13.95Q50.35-13.95 50.35-12.75L50.35-12.75Q50.35-10.9 48.5-8.8L48.5-8.8Q50.9-8.4 50.9-7.65L50.9-7.65Q50.9-6.65 50.02-6.13 49.15-5.6 48-4.25 46.85-2.9 46.85-1.55L46.85-1.55Q46.85-1.25 47.05-1 47.25-0.75 47.9-0.75 48.55-0.75 50.65-1.73 52.75-2.7 54.35-3.7L54.35-3.7 55.95-4.7Q56-4.6 56-4.3 56-4 55.55-3.8L55.55-3.8Q48.8 0.8 46.15 0.8L46.15 0.8Q44.85 0.8 44.85-0.5L44.85-0.5Q44.85-1.55 45.57-2.7 46.3-3.85 47.17-4.6 48.05-5.35 48.77-6.03 49.5-6.7 49.5-6.9 49.5-7.1 48.87-7.15 48.25-7.2 47.25-7.4L47.25-7.4Q44.5-4.45 42.6-3.35ZM45.7-10.3L45.7-10.3Q45.7-9.3 47.9-8.9L47.9-8.9Q49.2-10.5 49.2-11.68 49.2-12.85 48.45-12.85 47.7-12.85 46.7-11.98 45.7-11.1 45.7-10.3ZM60.64-1.2L61.14-1.4Q63.54-2.4 66.29-4.1L66.29-4.1 67.24-4.7Q67.29-4.6 67.29-4.3 67.29-4 66.84-3.8L66.84-3.8Q64.19-2 61.54-0.65 58.89 0.7 56.64 0.7L56.64 0.7Q53.79 0.7 53.79-1.35L53.79-1.35Q53.79-3.8 57.22-6.88 60.64-9.95 63.99-9.95L63.99-9.95Q65.39-9.95 65.39-8.75L65.39-8.75Q65.39-8.05 64.14-7L64.14-7Q62.39-5.55 61.94-5.55 61.49-5.55 61.49-5.95L61.49-5.95Q61.49-6.1 61.69-6.25L61.69-6.25Q62.19-6.55 62.82-7.18 63.44-7.8 63.44-8.25L63.44-8.25Q63.44-8.95 62.79-8.95L62.79-8.95Q61.39-8.95 58.69-6.43 55.99-3.9 55.99-2.35L55.99-2.35Q55.99-0.6 57.89-0.6L57.89-0.6Q59.14-0.6 60.64-1.2L60.64-1.2ZM78.54-9.35Q78.54-9.3 77.42-7.58 76.29-5.85 75.67-4.95 75.04-4.05 70.44 3.45L70.44 3.45Q70.84 3.4 71.74 3.4L71.74 3.4Q74.14 3.4 74.14 4.65L74.14 4.65Q74.14 5.35 73.24 6.3 72.34 7.25 71.84 7.25 71.34 7.25 71.34 6.9L71.34 6.9Q71.34 6.7 71.89 6.28 72.44 5.85 72.44 5.28 72.44 4.7 71.47 4.7 70.49 4.7 69.59 4.85L69.59 4.85Q65.04 12.3 61.74 16.5 58.44 20.7 56.09 20.7L56.09 20.7Q54.39 20.7 54.39 18.95L54.39 18.95Q54.39 15.95 58.92 10.63 63.44 5.3 68.74 3.8L68.74 3.8 73.54-4.5Q71.44-2.6 69.22-1.15 66.99 0.3 65.84 0.3 64.69 0.3 64.69-0.75L64.69-0.75Q64.69-2.35 69.94-9.6L69.94-9.6Q70.19-10 70.59-10L70.59-10Q71.74-9.65 71.74-9.5 71.74-9.35 71.44-8.9L71.44-8.9Q66.94-2.8 66.94-1.85L66.94-1.85Q66.94-1.25 67.62-1.25 68.29-1.25 70.42-2.85 72.54-4.45 74.04-6.1L74.04-6.1 76.84-9.5Q77.14-9.85 77.59-9.85L77.59-9.85Q78.54-9.7 78.54-9.35L78.54-9.35ZM59.24 11.68Q57.79 13.65 56.94 15.43 56.09 17.2 56.09 18.23 56.09 19.25 56.89 19.25L56.89 19.25Q59.39 19.25 67.84 5.25L67.84 5.25Q65.34 6.05 63.02 7.88 60.69 9.7 59.24 11.68ZM79.59 0.8L79.59 0.8Q77.34 0.8 77.34-1.65L77.34-1.65Q77.34-4.9 80.86-10.98 84.39-17.05 88.91-21.88 93.44-26.7 96.04-26.7L96.04-26.7Q96.99-26.7 96.99-25.35L96.99-25.35Q96.99-23.25 93.46-18.5 89.94-13.75 85.89-9.6 81.84-5.45 79.64-3.9L79.64-3.9Q79.54-3.1 79.54-2.83 79.54-2.55 79.59-2.2 79.64-1.85 79.99-1.3 80.34-0.75 81.16-0.75 81.99-0.75 84.09-1.73 86.19-2.7 87.79-3.7L87.79-3.7 89.39-4.7Q89.44-4.6 89.44-4.3 89.44-4 88.99-3.8L88.99-3.8Q82.24 0.8 79.59 0.8ZM95.19-24.15L95.19-24.15Q95.14-25.25 94.54-25.25L94.54-25.25Q92.99-25.25 89.84-21.75 86.69-18.25 83.74-13.38 80.79-8.5 79.89-5L79.89-5Q81.99-6.7 85.29-10 88.59-13.3 91.79-17.55 94.99-21.8 95.19-24.15ZM96.84-15.25L96.84-15.25Q97.59-15.25 97.59-14.5 97.59-13.75 96.89-12.98 96.19-12.2 95.34-12.2L95.34-12.2Q94.64-12.2 94.64-13.18 94.64-14.15 95.44-14.7 96.24-15.25 96.84-15.25ZM92.14-8.65L92.14-8.65Q92.39-9.05 92.84-9.05 93.29-9.05 93.74-8.6L93.74-8.6Q93.74-8.4 93.09-7.7 92.44-7 90.89-4.58 89.34-2.15 89.34-1.35L89.34-1.35Q89.34-0.85 90.09-0.75L90.09-0.75Q91.09-0.75 93.19-1.73 95.29-2.7 96.89-3.7L96.89-3.7 98.49-4.7Q98.54-4.6 98.54-4.3 98.54-4 98.09-3.8L98.09-3.8Q91.34 0.8 88.69 0.8L88.69 0.8Q87.39 0.8 87.39-0.5 87.39-1.8 88.81-4.13 90.24-6.45 92.14-8.65ZM97.03-3.8L97.03-3.8Q97.98-4.35 99.53-5.55L99.53-5.55Q103.33-8.55 103.58-8.55L103.58-8.55Q104.33-8.55 104.33-7.9 104.33-7.25 103.56-5.9 102.78-4.55 101.81-3.1 100.83-1.65 100.68-1.35L100.68-1.35Q100.73-1.3 100.91-1.3 101.08-1.3 102.88-2.63 104.68-3.95 106.63-5.43 108.58-6.9 108.93-7.13 109.28-7.35 109.58-7.35L109.58-7.35Q110.18-7.3 110.18-6.65L110.18-6.65Q110.18-6.4 108.48-4.13 106.78-1.85 106.78-1.2L106.78-1.2Q106.78-0.75 107.86-0.75 108.93-0.75 111.03-1.73 113.13-2.7 114.73-3.7L114.73-3.7 116.33-4.7Q116.38-4.6 116.38-4.3 116.38-4 115.93-3.8L115.93-3.8Q109.18 0.8 106.53 0.8L106.53 0.8Q104.98 0.8 104.98-0.4L104.98-0.4Q104.98-1.55 105.66-2.6 106.33-3.65 106.83-4.38 107.33-5.1 107.33-5.15L107.33-5.15Q105.03-3.5 101.88-1.2 98.73 1.1 98.33 1.1L98.33 1.1Q98.03 1.1 98.03 0.4 98.03-0.3 100.01-3.25 101.98-6.2 101.98-6.4 101.98-6.6 101.88-6.6L101.88-6.6 101.38-6.35 98.88-4.35Q98.63-4.15 97.93-3.7 97.23-3.25 97.06-3.25 96.88-3.25 96.88-3.48 96.88-3.7 97.03-3.8Z" opacity="1" transform="matrix(1,0,0,1,0,0)" fill="#ff908b" class="undefined-text-0" data-fill-palette-color="primary" id="text-0"></path></svg></g></svg></g><g transform="matrix(1,0,0,1,0,130.32615058630347)"><svg viewBox="0 0 244.43136 65.15906874847141" height="65.15906874847141" width="244.43136"><g transform="matrix(1,0,0,1,0,0)"><svg width="244.43136" viewBox="1.6100000143051147 -35.54999923706055 135.27000427246094 36.05999755859375" height="65.15906874847141" data-palette-color="#ff908b"><path d="M16.67 0L1.61 0 1.61-3.76 5.52-4.52 5.52-30.98 1.61-31.76 1.61-35.55 5.52-35.55 16.5-35.55Q21.26-35.55 24.84-33.3 28.42-31.05 30.42-27.12 32.42-23.19 32.42-18.12L32.42-18.12 32.42-17.41Q32.42-12.4 30.47-8.46 28.52-4.52 24.96-2.26 21.41 0 16.67 0L16.67 0ZM11.67-30.79L11.67-4.74 16.36-4.74Q19.48-4.74 21.69-6.41 23.9-8.08 25.07-10.95 26.25-13.82 26.25-17.41L26.25-17.41 26.25-18.14Q26.25-21.83 25.07-24.67 23.9-27.51 21.69-29.15 19.48-30.79 16.36-30.79L16.36-30.79 11.67-30.79ZM72.05 0.51L72.05 0.51Q68.32 0.51 65.55-1.16 62.78-2.83 61.25-5.79 59.73-8.74 59.73-12.55L59.73-12.55 59.73-13.57Q59.73-17.43 61.23-20.45 62.73-23.46 65.36-25.18 68-26.9 71.37-26.9L71.37-26.9Q74.96-26.9 77.39-25.46 79.82-24.02 81.06-21.37 82.31-18.73 82.31-15.01L82.31-15.01 82.31-11.5 66.1-11.5 66.05-11.38Q66.15-9.3 66.91-7.69 67.68-6.08 69.11-5.15 70.54-4.22 72.59-4.22L72.59-4.22Q74.74-4.22 76.5-4.81 78.26-5.4 79.74-6.47L79.74-6.47 81.67-2.61Q80.11-1.29 77.69-0.39 75.28 0.51 72.05 0.51ZM66.12-15.94L66.19-15.82 76.42-15.82 76.42-16.46Q76.42-18.19 75.9-19.49 75.37-20.8 74.26-21.53 73.15-22.27 71.44-22.27L71.44-22.27Q69.95-22.27 68.83-21.44 67.71-20.61 67.04-19.18 66.37-17.75 66.12-15.94L66.12-15.94ZM125.41 0L119.43 0 110.86-22.22 108.05-22.63 108.05-26.42 120.13-26.42 120.13-22.63 117.08-22.14 121.84-8.89 122.48-6.79 122.62-6.79 123.36-8.89 128.17-22.14 124.82-22.63 124.82-26.42 136.88-26.42 136.88-22.63 134-22.19 125.41 0Z" opacity="1" transform="matrix(1,0,0,1,0,0)" fill="#ff908b" class="undefined-text-1" data-fill-palette-color="secondary" id="text-1"></path></svg></g></svg></g></svg></g></svg></g></svg></g></svg></g></svg></g><g><path d="M0 123.6c0-68.262 55.338-123.6 123.6-123.6 34.781 0 66.207 14.367 88.667 37.489l-5.257 0c-21.579-20.906-50.992-33.774-83.41-33.774-66.21 0-119.885 53.674-119.885 119.885 0 66.21 53.674 119.885 119.885 119.885 32.418 0 61.832-12.868 83.41-33.774h5.257c-22.46 23.123-53.886 37.489-88.667 37.489-68.262 0-123.6-55.338-123.6-123.6z" fill="#ff908b" stroke="transparent" data-fill-palette-color="tertiary"></path></g></svg></g><defs></defs></svg><rect width="395.52" height="247.2" fill="none" stroke="none" visibility="hidden"></rect></g></svg></g></svg>